<svg id="Handle" xmlns="http://www.w3.org/2000/svg" width="649" height="640" viewBox="0 0 649 640">
  <defs>
    <style>
      .cls-1 {
        fill: #f05a66;
      }

      .cls-1, .cls-2, .cls-3, .cls-4, .cls-5 {
        stroke: #333;
        stroke-width: 10px;
        fill-rule: evenodd;
      }

      .cls-2 {
        fill: #494c28;
      }

      .cls-3 {
        fill: #fdd358;
      }

      .cls-4 {
        fill: #d35050;
      }

      .cls-5 {
        fill: #abbd81;
        stroke-linecap: round;
        stroke-linejoin: round;
      }
    </style>
  </defs>
  <path id="Rounded_Rectangle_1" data-name="Rounded Rectangle 1" class="cls-1" d="M449.433,480.827l52.416-47.715a8.71,8.71,0,0,1,12.305.518l15.168,16.663a8.708,8.708,0,0,1-.637,12.3L476.27,510.307a8.708,8.708,0,0,1-12.305-.518L448.8,493.127A8.709,8.709,0,0,1,449.433,480.827Z"/>
  <path id="Rounded_Rectangle_1_copy" data-name="Rounded Rectangle 1 copy" class="cls-2" d="M490.433,521.827l52.416-47.715a8.71,8.71,0,0,1,12.3.518l15.168,16.663a8.708,8.708,0,0,1-.637,12.3L517.27,551.307a8.708,8.708,0,0,1-12.305-.518L489.8,534.127A8.709,8.709,0,0,1,490.433,521.827Z"/>
  <path id="Rounded_Rectangle_1_copy_2" data-name="Rounded Rectangle 1 copy 2" class="cls-3" d="M529.433,560.827l52.416-47.715a8.71,8.71,0,0,1,12.3.518l15.168,16.663a8.708,8.708,0,0,1-.637,12.3L556.27,590.307a8.708,8.708,0,0,1-12.3-.518L528.8,573.127A8.709,8.709,0,0,1,529.433,560.827Z"/>
  <path class="cls-2" d="M198,180c50.759-63.547,170.72-55.989,170.72-55.989S339.09,83.182,289,79c-46.516-3.883-89.727,3.633-132,33C82.281,163.907,71,256,71,256s-9.833,63.41,44,64C192.814,320.853,151.1,238.714,198,180Z"/>
  <path id="Shape_1_copy" data-name="Shape 1 copy" class="cls-3" d="M368,400c-86.7,28.014-168.835,26.131-206.7-84.277-4.666-13.6-62.034-.749-58.3-2.723-4.336,2.292-8.451-1.135-7,10,9.142,70.169,62.112,130.235,125,154,72.622,27.443,141.572,18.132,193-3,42.6-17.5,39.492-36.244,35-73S380.37,396,368,400Z"/>
  <path id="Shape_1_copy-2" data-name="Shape 1 copy" class="cls-4" d="M400,178c60.551,47.848,61.077,116.147,26,181-5.975,11.046-8.09,25.1-8.09,25.1l39.93,42.339A199.612,199.612,0,0,0,474,409c68.234-84.235,58.73-172.183,23.262-234-32.932-57.4-100.843-94.314-156.1-109.795C312.039,57.05,279.432,56.13,276,93,269.1,167.191,339.767,130.4,400,178Z"/>
  <path id="Shape_2_copy" data-name="Shape 2 copy" class="cls-5" d="M304.573,146.918s-10.132-11.861-12.541-21.441c-1.935-7.7-4.124-15.264-4.124-15.264l31.408-4.751L294,90.092a71.65,71.65,0,0,1,7.853-13.128A149.139,149.139,0,0,1,316.094,60.8s-13.845-.444-26.7,6.426c-13.565,7.252-19.938,20.06-21.9,19.806-66.248-10.849-103.764,39.435-109.97,58.537-3.224,9.923,12.015,14.064,17.9,6.366,12.5-16.346,28.683-52.794,87.922-47.273,0.842,0.3,1.741,15.774,8.374,24.205C281.335,141.086,304.573,146.918,304.573,146.918Z"/>
  <path class="cls-5" d="M160.281,272.549s-7.781,13.521-16,19c-6.6,4.4-13,9-13,9l-15-28-6,29a71.636,71.636,0,0,1-15-3,149.15,149.15,0,0,1-20-8s4.221,13.193,15,23c11.378,10.352,25.582,12.065,26,14,11.976,66.053,71.923,84.553,92,84,10.429-.287,9.226-16.034,0-19-19.589-6.3-59.352-9.335-74-67,0-.894,14.279-6.926,20-16C162.572,296.4,160.281,272.549,160.281,272.549Z"/>
  <path id="Shape_2_copy-2" data-name="Shape 2 copy" class="cls-5" d="M396.985,384.448s14.963,4.415,22.207,11.13c5.82,5.394,11.783,10.543,11.783,10.543l-23.731,21.115,29.6-.927a71.68,71.68,0,0,1,.58,15.286,149.2,149.2,0,0,1-3.117,21.314s11.846-7.181,18.869-19.949c7.414-13.478,5.768-27.689,7.552-28.547,61.441-27.046,65.454-89.654,60.236-109.05-2.711-10.074-17.743-5.233-18.477,4.43-1.558,20.518,4.76,59.894-47.9,87.582-0.869.208-10.064-12.271-20.222-15.719C419.643,376.66,396.985,384.448,396.985,384.448Z"/>
</svg>
